<svg width="1440" height="510" viewBox="0 0 1440 510" fill="none" xmlns="http://www.w3.org/2000/svg">
<path opacity="0.866281" d="M1282.86 500.066C1261.47 500.066 1238.84 476.585 1215.73 430.058C1215.42 429.623 1215.58 428.754 1215.89 428.536C1216.2 428.102 1216.67 428.319 1216.98 428.754C1240.71 476.151 1263.5 499.414 1285.04 497.675C1302.53 496.37 1314.55 479.412 1327.35 461.584C1339.84 443.973 1352.8 425.71 1371.53 424.405C1392.45 422.884 1414.15 442.886 1436 483.76C1436.31 484.195 1436.16 485.065 1435.84 485.282C1435.53 485.717 1435.06 485.499 1434.75 485.065C1413.21 444.843 1391.98 425.058 1371.68 426.58C1353.58 427.884 1340.78 445.712 1328.6 463.106C1316.27 480.499 1303.47 498.327 1285.36 499.849C1284.42 499.849 1283.64 500.066 1282.86 500.066Z" fill="white"/>
<path fill-rule="evenodd" clip-rule="evenodd" d="M74.3927 509.805C74.5324 510 74.6721 510 74.8118 510C74.9515 510 75.2309 509.805 75.5103 509.611L95.488 478.082C95.6277 477.888 95.6277 477.499 95.6277 477.304C95.6277 476.915 95.488 476.72 95.3483 476.525L73.275 448.111C73.1353 447.917 72.8559 447.917 72.7162 447.917C72.4368 447.917 72.2971 448.111 72.1574 448.306L52.1797 479.834C52.04 480.029 52.04 480.418 52.04 480.612C52.04 481.002 52.1797 481.196 52.3194 481.391L74.3927 509.805ZM74.8801 507.516L53.8193 480.512L72.788 450.4L93.8488 477.598L74.8801 507.516Z" fill="white"/>
<path opacity="0.866281" d="M-3.159 126.535C-3.4954 126.535 -4 126.066 -4 125.598C-4 124.895 -3.8318 124.192 -3.3272 124.192L23.9213 117.633C24.4259 117.633 24.7623 117.867 24.9305 118.57C25.0987 119.273 24.7623 119.975 24.2577 119.975L-3.159 126.535C-2.9908 126.535 -2.9908 126.535 -3.159 126.535Z" fill="white"/>
<path opacity="0.866281" d="M1426.54 7.5281C1426.41 7.09273 1426.44 6.56959 1426.69 6.17639C1427.09 5.69543 1427.62 5.64984 1427.97 6.21514L1446.54 34.7367C1446.88 35.302 1446.92 36.0428 1446.45 36.306C1446.05 36.787 1445.52 36.8326 1445.17 36.2673L1426.76 7.65803C1426.6 7.74579 1426.54 7.5281 1426.54 7.5281Z" fill="#575757"/>
<path opacity="0.866281" d="M236.293 386.816C235.957 386.816 235.789 386.581 235.621 386.347L221.155 352.847C220.987 352.378 220.987 351.441 221.492 351.207C221.828 350.973 222.501 350.973 222.669 351.676L237.134 385.176C237.303 385.644 237.303 386.581 236.798 386.816C236.63 386.581 236.462 386.816 236.293 386.816Z" fill="white"/>
<path opacity="0.866281" d="M1207.44 218.824L1207.52 218.621L1227.49 191.884C1227.89 191.391 1228.41 191.539 1228.62 191.976C1228.97 192.531 1228.86 193.258 1228.69 193.665L1208.72 220.402C1208.32 220.895 1207.8 220.747 1207.6 220.31C1207.16 219.958 1207.27 219.231 1207.44 218.824Z" fill="white"/>
<ellipse cx="1370.79" cy="257.321" rx="8.45066" ry="11.7958" stroke="white" stroke-width="1.5"/>
<path fill-rule="evenodd" clip-rule="evenodd" d="M147.398 210.022C149.415 212.852 151.905 214.183 154.396 214.183C156.887 214.183 159.496 212.685 161.275 210.022C163.054 207.358 164.122 203.862 164.122 200.033C164.122 196.204 163.173 192.709 161.275 190.045C157.48 184.551 151.194 184.551 147.398 190.045C145.619 192.709 144.552 196.204 144.552 200.033C144.552 203.862 145.501 207.358 147.398 210.022ZM148.345 191.407C149.974 188.954 152.068 187.809 154.279 187.809C156.489 187.809 158.583 188.954 160.329 191.407C161.841 193.696 162.772 196.804 162.772 200.075C162.772 203.346 161.958 206.453 160.329 208.743C156.955 213.485 151.602 213.485 148.345 208.743C146.832 206.453 145.901 203.346 145.901 200.075C145.901 196.804 146.716 193.696 148.345 191.407Z" fill="white"/>
</svg>
